<mxfile host="Electron" modified="2024-04-02T23:07:36.868Z" agent="Mozilla/5.0 (Macintosh; Intel Mac OS X 10_15_7) AppleWebKit/537.36 (KHTML, like Gecko) draw.io/22.1.2 Chrome/114.0.5735.289 Electron/25.9.4 Safari/537.36" etag="AlWb39uQIrFCNyThWK_K" version="22.1.2" type="device">
  <diagram name="Page-1" id="1VRC2q2bQLJz0AdDCru2">
    <mxGraphModel dx="851" dy="743" grid="1" gridSize="10" guides="1" tooltips="1" connect="1" arrows="1" fold="1" page="1" pageScale="1" pageWidth="850" pageHeight="1100" math="0" shadow="0">
      <root>
        <mxCell id="0" />
        <mxCell id="1" parent="0" />
        <mxCell id="6MzHVBXv33oPtRZ-CpsC-39" value="" style="endArrow=classic;html=1;rounded=0;strokeWidth=3;dashed=1;verticalAlign=bottom;" parent="1" edge="1">
          <mxGeometry relative="1" as="geometry">
            <mxPoint x="280" y="410" as="sourcePoint" />
            <mxPoint x="370" y="370" as="targetPoint" />
          </mxGeometry>
        </mxCell>
        <mxCell id="6MzHVBXv33oPtRZ-CpsC-42" value="&lt;font style=&quot;font-size: 10px;&quot;&gt;generate candidate&lt;/font&gt;" style="edgeLabel;html=1;align=center;verticalAlign=bottom;resizable=0;points=[];rotation=0;" parent="6MzHVBXv33oPtRZ-CpsC-39" vertex="1" connectable="0">
          <mxGeometry y="-1" relative="1" as="geometry">
            <mxPoint x="-8" y="9" as="offset" />
          </mxGeometry>
        </mxCell>
        <mxCell id="clpaJocxuM_yP_q-SSFf-39" value="" style="rounded=1;whiteSpace=wrap;html=1;fillColor=none;" parent="1" vertex="1">
          <mxGeometry x="36.86" y="240" width="233.14" height="410" as="geometry" />
        </mxCell>
        <mxCell id="6MzHVBXv33oPtRZ-CpsC-58" value="" style="endArrow=classic;html=1;rounded=0;strokeWidth=3;" parent="1" edge="1">
          <mxGeometry relative="1" as="geometry">
            <mxPoint x="644.5" y="491.71" as="sourcePoint" />
            <mxPoint x="644.5" y="531.71" as="targetPoint" />
          </mxGeometry>
        </mxCell>
        <mxCell id="6MzHVBXv33oPtRZ-CpsC-60" value="&lt;div style=&quot;font-size: 10px;&quot;&gt;&lt;font style=&quot;font-size: 10px;&quot;&gt;has literal constant&lt;/font&gt;&lt;/div&gt;&lt;font style=&quot;font-size: 10px;&quot;&gt;emit exist-forall query&lt;/font&gt;" style="edgeLabel;html=1;align=left;verticalAlign=middle;resizable=0;points=[];fontSize=10;" parent="6MzHVBXv33oPtRZ-CpsC-58" vertex="1" connectable="0">
          <mxGeometry y="-1" relative="1" as="geometry">
            <mxPoint x="11" as="offset" />
          </mxGeometry>
        </mxCell>
        <mxCell id="6MzHVBXv33oPtRZ-CpsC-61" value="∃ %literal, ∀ %x, %y. src =&gt; tgt" style="text;whiteSpace=wrap;fontFamily=Courier New;fontSize=15;strokeColor=default;rounded=0;verticalAlign=middle;align=center;strokeWidth=2;" parent="1" vertex="1">
          <mxGeometry x="480" y="540" width="327.5" height="30" as="geometry" />
        </mxCell>
        <mxCell id="6MzHVBXv33oPtRZ-CpsC-66" value="" style="endArrow=classic;html=1;rounded=0;strokeWidth=3;" parent="1" edge="1">
          <mxGeometry relative="1" as="geometry">
            <mxPoint x="644.5" y="580" as="sourcePoint" />
            <mxPoint x="644.5" y="610" as="targetPoint" />
          </mxGeometry>
        </mxCell>
        <mxCell id="6MzHVBXv33oPtRZ-CpsC-68" value="&lt;font style=&quot;font-size: 10px;&quot;&gt;find model&lt;/font&gt;" style="edgeLabel;html=1;align=left;verticalAlign=middle;resizable=0;points=[];fontSize=10;" parent="6MzHVBXv33oPtRZ-CpsC-66" vertex="1" connectable="0">
          <mxGeometry y="-1" relative="1" as="geometry">
            <mxPoint x="11" y="-5" as="offset" />
          </mxGeometry>
        </mxCell>
        <mxCell id="6MzHVBXv33oPtRZ-CpsC-69" value="%literal = &lt;i1 0, i1 1, i1 0, i1 1&gt;" style="text;whiteSpace=wrap;fontFamily=Courier New;fontSize=15;strokeColor=#82b366;align=center;verticalAlign=middle;strokeWidth=2;fillColor=#d5e8d4;" parent="1" vertex="1">
          <mxGeometry x="482.5" y="620" width="325" height="30" as="geometry" />
        </mxCell>
        <mxCell id="6MzHVBXv33oPtRZ-CpsC-70" value=" define &lt;4 x i1&gt; @tgt(&lt;4 x i32&gt; %x, &lt;4 x i32&gt; %y) {&#xa; entry:&#xa;   %0 = icmp eq &lt;4 x i32&gt; %x, %y&#xa;   %1 = xor &lt;4 x i1&gt; %1, &lt;i1 0, i1 1, i1 0, i1 1&gt;&#xa;   ret &lt;4 x i1&gt; %1&#xa; }" style="text;whiteSpace=wrap;fontFamily=Courier New;fontSize=14;rounded=0;strokeColor=default;strokeWidth=2;" parent="1" vertex="1">
          <mxGeometry x="40" y="700" width="770" height="110" as="geometry" />
        </mxCell>
        <mxCell id="8LxSKqHP3K_tZCFsTD24-1" value=" define &lt;4 x i1&gt; @src(&lt;4 x i32&gt; %x, &lt;4 x i32&gt; %y) {&#xa; entry:&#xa;   %0 = icmp eq &lt;4 x i32&gt; %x, %y&#xa;   %1 = icmp ne &lt;4 x i32&gt; %x, %y&#xa;   %2 = shufflevector &lt;4 x i1&gt; %0, &lt;4 x i1&gt; %1, &lt;4 x i32&gt; &lt;i32 0, i32 5, i32 2, i32 7&gt;&#xa;   ret &lt;4 x i1&gt; %2&#xa; }" style="text;whiteSpace=wrap;fontFamily=Courier New;fontSize=14;strokeColor=default;spacingLeft=0;perimeterSpacing=0;strokeWidth=2;" parent="1" vertex="1">
          <mxGeometry x="40" y="50" width="770" height="130" as="geometry" />
        </mxCell>
        <mxCell id="8LxSKqHP3K_tZCFsTD24-5" value="rewrite" style="endArrow=classic;html=1;rounded=0;strokeWidth=3;fontSize=10;align=left;" parent="1" edge="1">
          <mxGeometry x="-0.3333" y="10" relative="1" as="geometry">
            <mxPoint x="643.25" y="660" as="sourcePoint" />
            <mxPoint x="643.25" y="690" as="targetPoint" />
            <mxPoint as="offset" />
          </mxGeometry>
        </mxCell>
        <mxCell id="8LxSKqHP3K_tZCFsTD24-9" value="" style="endArrow=classic;html=1;rounded=0;strokeWidth=3;" parent="1" edge="1">
          <mxGeometry relative="1" as="geometry">
            <mxPoint x="152.93" y="190" as="sourcePoint" />
            <mxPoint x="152.93" y="230" as="targetPoint" />
          </mxGeometry>
        </mxCell>
        <mxCell id="clpaJocxuM_yP_q-SSFf-2" value="" style="group" parent="1" vertex="1" connectable="0">
          <mxGeometry x="580" y="230" width="210" height="250" as="geometry" />
        </mxCell>
        <mxCell id="clpaJocxuM_yP_q-SSFf-26" value="" style="rounded=1;whiteSpace=wrap;html=1;fillStyle=solid;fillColor=none;dashed=1;" parent="clpaJocxuM_yP_q-SSFf-2" vertex="1">
          <mxGeometry x="-10" y="-10" width="220" height="260" as="geometry" />
        </mxCell>
        <mxCell id="6MzHVBXv33oPtRZ-CpsC-33" value="&lt;font style=&quot;font-size: 18px;&quot;&gt;%x&lt;/font&gt;" style="ellipse;whiteSpace=wrap;html=1;aspect=fixed;fontFamily=Courier New;fontSize=16;strokeWidth=2;fillColor=#fff2cc;strokeColor=#d6b656;" parent="clpaJocxuM_yP_q-SSFf-2" vertex="1">
          <mxGeometry width="61.53846153846153" height="61.53846153846153" as="geometry" />
        </mxCell>
        <mxCell id="6MzHVBXv33oPtRZ-CpsC-44" value="icmp&lt;div&gt;eq&lt;/div&gt;" style="ellipse;whiteSpace=wrap;html=1;aspect=fixed;fontFamily=Courier New;fontSize=14;strokeWidth=2;fillColor=#e1d5e7;strokeColor=#9673a6;" parent="clpaJocxuM_yP_q-SSFf-2" vertex="1">
          <mxGeometry x="46.15384615384615" y="85.16129032258065" width="61.53846153846153" height="61.53846153846153" as="geometry" />
        </mxCell>
        <mxCell id="6MzHVBXv33oPtRZ-CpsC-45" value="xor" style="ellipse;whiteSpace=wrap;html=1;aspect=fixed;fontFamily=Courier New;fontSize=14;strokeWidth=2;fillColor=#dae8fc;strokeColor=#6c8ebf;" parent="clpaJocxuM_yP_q-SSFf-2" vertex="1">
          <mxGeometry x="92.3076923076923" y="178.06451612903228" width="61.53846153846153" height="61.53846153846153" as="geometry" />
        </mxCell>
        <mxCell id="6MzHVBXv33oPtRZ-CpsC-46" value="" style="endArrow=classic;html=1;rounded=0;entryX=0;entryY=0;entryDx=0;entryDy=0;strokeWidth=2;exitX=0.5;exitY=1;exitDx=0;exitDy=0;" parent="clpaJocxuM_yP_q-SSFf-2" source="6MzHVBXv33oPtRZ-CpsC-33" target="6MzHVBXv33oPtRZ-CpsC-44" edge="1">
          <mxGeometry width="50" height="50" relative="1" as="geometry">
            <mxPoint x="30.769230769230766" y="38.70967741935484" as="sourcePoint" />
            <mxPoint x="38.46153846153846" y="94.45161290322582" as="targetPoint" />
          </mxGeometry>
        </mxCell>
        <mxCell id="6MzHVBXv33oPtRZ-CpsC-49" value="" style="endArrow=classic;html=1;rounded=0;strokeWidth=2;exitX=0.5;exitY=1;exitDx=0;exitDy=0;entryX=0;entryY=0;entryDx=0;entryDy=0;" parent="clpaJocxuM_yP_q-SSFf-2" source="6MzHVBXv33oPtRZ-CpsC-44" target="6MzHVBXv33oPtRZ-CpsC-45" edge="1">
          <mxGeometry width="50" height="50" relative="1" as="geometry">
            <mxPoint x="76.53846153846153" y="147.0967741935484" as="sourcePoint" />
            <mxPoint x="115.38461538461539" y="178.06451612903228" as="targetPoint" />
          </mxGeometry>
        </mxCell>
        <mxCell id="6MzHVBXv33oPtRZ-CpsC-54" value="&lt;font style=&quot;font-size: 18px;&quot;&gt;%y&lt;/font&gt;" style="ellipse;whiteSpace=wrap;html=1;aspect=fixed;fontFamily=Courier New;fontSize=14;strokeWidth=2;fillColor=#fff2cc;strokeColor=#d6b656;" parent="clpaJocxuM_yP_q-SSFf-2" vertex="1">
          <mxGeometry x="92.3076923076923" width="61.53846153846153" height="61.53846153846153" as="geometry" />
        </mxCell>
        <mxCell id="6MzHVBXv33oPtRZ-CpsC-55" value="" style="endArrow=classic;html=1;rounded=0;entryX=1;entryY=0;entryDx=0;entryDy=0;strokeWidth=2;exitX=0.5;exitY=1;exitDx=0;exitDy=0;" parent="clpaJocxuM_yP_q-SSFf-2" source="6MzHVBXv33oPtRZ-CpsC-54" target="6MzHVBXv33oPtRZ-CpsC-44" edge="1">
          <mxGeometry width="50" height="50" relative="1" as="geometry">
            <mxPoint x="30.769230769230766" y="54.193548387096776" as="sourcePoint" />
            <mxPoint x="84.61538461538461" y="92.90322580645163" as="targetPoint" />
          </mxGeometry>
        </mxCell>
        <mxCell id="6MzHVBXv33oPtRZ-CpsC-56" value="literal" style="ellipse;whiteSpace=wrap;html=1;aspect=fixed;fontFamily=Courier New;fontSize=14;strokeWidth=2;fillColor=#ffe6cc;strokeColor=#d79b00;" parent="clpaJocxuM_yP_q-SSFf-2" vertex="1">
          <mxGeometry x="138.46153846153845" y="85.16129032258065" width="61.53846153846153" height="61.53846153846153" as="geometry" />
        </mxCell>
        <mxCell id="6MzHVBXv33oPtRZ-CpsC-57" value="" style="endArrow=classic;html=1;rounded=0;strokeWidth=2;exitX=0.5;exitY=1;exitDx=0;exitDy=0;entryX=1;entryY=0;entryDx=0;entryDy=0;" parent="clpaJocxuM_yP_q-SSFf-2" source="6MzHVBXv33oPtRZ-CpsC-56" target="6MzHVBXv33oPtRZ-CpsC-45" edge="1">
          <mxGeometry width="50" height="50" relative="1" as="geometry">
            <mxPoint x="84.23076923076923" y="154.83870967741936" as="sourcePoint" />
            <mxPoint x="143.84615384615384" y="178.06451612903228" as="targetPoint" />
          </mxGeometry>
        </mxCell>
        <mxCell id="clpaJocxuM_yP_q-SSFf-7" value="" style="group;fillColor=none;" parent="1" vertex="1" connectable="0">
          <mxGeometry x="375" y="230" width="255" height="340" as="geometry" />
        </mxCell>
        <mxCell id="clpaJocxuM_yP_q-SSFf-18" value="" style="group;fillColor=none;fillStyle=dots;rounded=0;" parent="clpaJocxuM_yP_q-SSFf-7" vertex="1" connectable="0">
          <mxGeometry x="5" y="-10" width="170.5" height="160" as="geometry" />
        </mxCell>
        <mxCell id="clpaJocxuM_yP_q-SSFf-17" value="" style="rounded=1;whiteSpace=wrap;html=1;fillColor=none;dashed=1;" parent="clpaJocxuM_yP_q-SSFf-18" vertex="1">
          <mxGeometry width="170.5" height="160" as="geometry" />
        </mxCell>
        <mxCell id="clpaJocxuM_yP_q-SSFf-8" value="&lt;font style=&quot;font-size: 18px;&quot;&gt;%x&lt;/font&gt;" style="ellipse;whiteSpace=wrap;html=1;aspect=fixed;fontFamily=Courier New;fontSize=16;strokeWidth=2;fillColor=#fff2cc;strokeColor=#d6b656;" parent="clpaJocxuM_yP_q-SSFf-18" vertex="1">
          <mxGeometry x="11.925999999999998" y="9.999642111541903" width="58.46153846153845" height="58.46153846153845" as="geometry" />
        </mxCell>
        <mxCell id="clpaJocxuM_yP_q-SSFf-9" value="icmp eq" style="ellipse;whiteSpace=wrap;html=1;aspect=fixed;fontFamily=Courier New;fontSize=14;strokeWidth=2;fillColor=#e1d5e7;strokeColor=#9673a6;" parent="clpaJocxuM_yP_q-SSFf-18" vertex="1">
          <mxGeometry x="55.77215384615384" y="95.15991649269311" width="58.46153846153845" height="58.46153846153845" as="geometry" />
        </mxCell>
        <mxCell id="clpaJocxuM_yP_q-SSFf-11" value="" style="endArrow=classic;html=1;rounded=0;entryX=0;entryY=0;entryDx=0;entryDy=0;strokeWidth=2;exitX=0.5;exitY=1;exitDx=0;exitDy=0;" parent="clpaJocxuM_yP_q-SSFf-18" source="clpaJocxuM_yP_q-SSFf-8" target="clpaJocxuM_yP_q-SSFf-9" edge="1">
          <mxGeometry width="50" height="50" relative="1" as="geometry">
            <mxPoint x="41.15676923076922" y="48.708857739337915" as="sourcePoint" />
            <mxPoint x="48.464461538461535" y="104.45012824336416" as="targetPoint" />
          </mxGeometry>
        </mxCell>
        <mxCell id="clpaJocxuM_yP_q-SSFf-13" value="&lt;font style=&quot;font-size: 18px;&quot;&gt;%y&lt;/font&gt;" style="ellipse;whiteSpace=wrap;html=1;aspect=fixed;fontFamily=Courier New;fontSize=14;strokeWidth=2;fillColor=#fff2cc;strokeColor=#d6b656;" parent="clpaJocxuM_yP_q-SSFf-18" vertex="1">
          <mxGeometry x="99.61830769230768" y="9.999642111541903" width="58.46153846153845" height="58.46153846153845" as="geometry" />
        </mxCell>
        <mxCell id="clpaJocxuM_yP_q-SSFf-14" value="" style="endArrow=classic;html=1;rounded=0;entryX=1;entryY=0;entryDx=0;entryDy=0;strokeWidth=2;exitX=0.5;exitY=1;exitDx=0;exitDy=0;" parent="clpaJocxuM_yP_q-SSFf-18" source="clpaJocxuM_yP_q-SSFf-13" target="clpaJocxuM_yP_q-SSFf-9" edge="1">
          <mxGeometry width="50" height="50" relative="1" as="geometry">
            <mxPoint x="41.15676923076922" y="64.1925439904563" as="sourcePoint" />
            <mxPoint x="92.31061538461537" y="102.90175961825233" as="targetPoint" />
          </mxGeometry>
        </mxCell>
        <mxCell id="clpaJocxuM_yP_q-SSFf-28" value="return value mismatch&#xa;candidate is discarded" style="text;whiteSpace=wrap;fontFamily=Helvetica;fontSize=13;strokeColor=#b85450;rounded=0;verticalAlign=middle;align=center;strokeWidth=2;fillColor=#f8cecc;" parent="clpaJocxuM_yP_q-SSFf-7" vertex="1">
          <mxGeometry x="-5" y="220" width="145" height="50" as="geometry" />
        </mxCell>
        <mxCell id="clpaJocxuM_yP_q-SSFf-21" value="" style="endArrow=classic;html=1;rounded=0;strokeWidth=3;" parent="clpaJocxuM_yP_q-SSFf-7" edge="1">
          <mxGeometry relative="1" as="geometry">
            <mxPoint x="65.5" y="160" as="sourcePoint" />
            <mxPoint x="65" y="210" as="targetPoint" />
          </mxGeometry>
        </mxCell>
        <mxCell id="clpaJocxuM_yP_q-SSFf-22" value="&lt;div style=&quot;font-size: 10px;&quot;&gt;&lt;font style=&quot;font-size: 10px;&quot;&gt;no literal constants&lt;/font&gt;&lt;/div&gt;&lt;div style=&quot;font-size: 10px;&quot;&gt;run translation validation&lt;/div&gt;" style="edgeLabel;html=1;align=left;verticalAlign=middle;resizable=0;points=[];" parent="clpaJocxuM_yP_q-SSFf-21" vertex="1" connectable="0">
          <mxGeometry y="-1" relative="1" as="geometry">
            <mxPoint x="11" y="-2" as="offset" />
          </mxGeometry>
        </mxCell>
        <mxCell id="6MzHVBXv33oPtRZ-CpsC-1" value="icmp&lt;div&gt;eq&lt;/div&gt;" style="ellipse;whiteSpace=wrap;html=1;aspect=fixed;fontFamily=Courier New;fontSize=14;strokeWidth=2;fillColor=#e1d5e7;strokeColor=#9673a6;" parent="1" vertex="1">
          <mxGeometry x="43.43" y="369.14" width="61.714285714285715" height="61.714285714285715" as="geometry" />
        </mxCell>
        <mxCell id="6MzHVBXv33oPtRZ-CpsC-2" value="icmp&lt;div&gt;ne&lt;/div&gt;" style="ellipse;whiteSpace=wrap;html=1;aspect=fixed;fontFamily=Courier New;fontSize=14;strokeWidth=2;fillColor=#e1d5e7;strokeColor=#9673a6;" parent="1" vertex="1">
          <mxGeometry x="120.0025" y="369.14" width="61.714285714285715" height="61.714285714285715" as="geometry" />
        </mxCell>
        <mxCell id="6MzHVBXv33oPtRZ-CpsC-3" value="&lt;font style=&quot;font-size: 14px;&quot;&gt;shuffle&lt;/font&gt;&lt;div style=&quot;&quot;&gt;&lt;font style=&quot;font-size: 14px;&quot;&gt;vector&lt;/font&gt;&lt;/div&gt;" style="ellipse;whiteSpace=wrap;html=1;aspect=fixed;fontFamily=Courier New;fontSize=14;strokeWidth=2;fillColor=#e1d5e7;strokeColor=#9673a6;" parent="1" vertex="1">
          <mxGeometry x="120.0025" y="469.9957142857142" width="61.714285714285715" height="61.714285714285715" as="geometry" />
        </mxCell>
        <mxCell id="6MzHVBXv33oPtRZ-CpsC-8" value="&lt;font style=&quot;font-size: 18px;&quot;&gt;%x&lt;/font&gt;" style="ellipse;whiteSpace=wrap;html=1;aspect=fixed;fontFamily=Courier New;fontSize=16;strokeWidth=2;fillColor=#fff2cc;strokeColor=#d6b656;" parent="1" vertex="1">
          <mxGeometry x="43.43" y="260" width="61.714285714285715" height="61.714285714285715" as="geometry" />
        </mxCell>
        <mxCell id="6MzHVBXv33oPtRZ-CpsC-11" value="" style="endArrow=classic;html=1;rounded=0;exitX=0.5;exitY=1;exitDx=0;exitDy=0;entryX=0.5;entryY=0;entryDx=0;entryDy=0;strokeWidth=2;" parent="1" source="6MzHVBXv33oPtRZ-CpsC-8" target="6MzHVBXv33oPtRZ-CpsC-1" edge="1">
          <mxGeometry width="50" height="50" relative="1" as="geometry">
            <mxPoint x="298.00437500000004" y="637.1428571428571" as="sourcePoint" />
            <mxPoint x="336.57625" y="598.5714285714286" as="targetPoint" />
          </mxGeometry>
        </mxCell>
        <mxCell id="6MzHVBXv33oPtRZ-CpsC-12" value="" style="endArrow=classic;html=1;rounded=0;exitX=1;exitY=1;exitDx=0;exitDy=0;entryX=0;entryY=0;entryDx=0;entryDy=0;strokeWidth=2;" parent="1" source="6MzHVBXv33oPtRZ-CpsC-8" target="6MzHVBXv33oPtRZ-CpsC-2" edge="1">
          <mxGeometry width="50" height="50" relative="1" as="geometry">
            <mxPoint x="122.116625" y="373.3142857142857" as="sourcePoint" />
            <mxPoint x="92.80199999999999" y="413.42857142857144" as="targetPoint" />
          </mxGeometry>
        </mxCell>
        <mxCell id="6MzHVBXv33oPtRZ-CpsC-15" value="" style="endArrow=classic;html=1;rounded=0;entryX=0.5;entryY=0;entryDx=0;entryDy=0;strokeWidth=2;" parent="1" target="6MzHVBXv33oPtRZ-CpsC-3" edge="1">
          <mxGeometry width="50" height="50" relative="1" as="geometry">
            <mxPoint x="151" y="431" as="sourcePoint" />
            <mxPoint x="237.83225" y="507.54285714285714" as="targetPoint" />
          </mxGeometry>
        </mxCell>
        <mxCell id="6MzHVBXv33oPtRZ-CpsC-16" value="" style="endArrow=classic;html=1;rounded=0;exitX=1;exitY=1;exitDx=0;exitDy=0;strokeWidth=2;entryX=0;entryY=0;entryDx=0;entryDy=0;" parent="1" source="6MzHVBXv33oPtRZ-CpsC-1" target="6MzHVBXv33oPtRZ-CpsC-3" edge="1">
          <mxGeometry width="50" height="50" relative="1" as="geometry">
            <mxPoint x="122.116625" y="357.8857142857143" as="sourcePoint" />
            <mxPoint x="82.00187500000001" y="405.7142857142857" as="targetPoint" />
          </mxGeometry>
        </mxCell>
        <mxCell id="6MzHVBXv33oPtRZ-CpsC-50" value="&lt;font style=&quot;font-size: 18px;&quot;&gt;%y&lt;/font&gt;" style="ellipse;whiteSpace=wrap;html=1;aspect=fixed;fontFamily=Courier New;fontSize=14;strokeWidth=2;fillColor=#fff2cc;strokeColor=#d6b656;" parent="1" vertex="1">
          <mxGeometry x="120.0025" y="260" width="61.714285714285715" height="61.714285714285715" as="geometry" />
        </mxCell>
        <mxCell id="6MzHVBXv33oPtRZ-CpsC-51" value="" style="endArrow=classic;html=1;rounded=0;exitX=0.5;exitY=1;exitDx=0;exitDy=0;entryX=0.5;entryY=0;entryDx=0;entryDy=0;strokeWidth=2;" parent="1" source="6MzHVBXv33oPtRZ-CpsC-50" target="6MzHVBXv33oPtRZ-CpsC-2" edge="1">
          <mxGeometry width="50" height="50" relative="1" as="geometry">
            <mxPoint x="166.47428125" y="351.7142857142857" as="sourcePoint" />
            <mxPoint x="166.47428125" y="398" as="targetPoint" />
          </mxGeometry>
        </mxCell>
        <mxCell id="6MzHVBXv33oPtRZ-CpsC-53" value="" style="endArrow=classic;html=1;rounded=0;entryX=1;entryY=0;entryDx=0;entryDy=0;strokeWidth=2;exitX=0;exitY=1;exitDx=0;exitDy=0;" parent="1" source="6MzHVBXv33oPtRZ-CpsC-50" target="6MzHVBXv33oPtRZ-CpsC-1" edge="1">
          <mxGeometry width="50" height="50" relative="1" as="geometry">
            <mxPoint x="197.71750000000003" y="351.7142857142857" as="sourcePoint" />
            <mxPoint x="205.431875" y="405.7142857142857" as="targetPoint" />
          </mxGeometry>
        </mxCell>
        <mxCell id="HPUjY_MpLUo8B48Nztpx-1" value="mask" style="ellipse;whiteSpace=wrap;html=1;aspect=fixed;fontFamily=Courier New;fontSize=14;strokeWidth=2;fillColor=#e1d5e7;strokeColor=#9673a6;" parent="1" vertex="1">
          <mxGeometry x="199.995" y="369.14" width="61.714285714285715" height="61.714285714285715" as="geometry" />
        </mxCell>
        <mxCell id="HPUjY_MpLUo8B48Nztpx-2" value="" style="endArrow=classic;html=1;rounded=0;entryX=1;entryY=0;entryDx=0;entryDy=0;strokeWidth=2;exitX=0;exitY=1;exitDx=0;exitDy=0;" parent="1" source="HPUjY_MpLUo8B48Nztpx-1" target="6MzHVBXv33oPtRZ-CpsC-3" edge="1">
          <mxGeometry width="50" height="50" relative="1" as="geometry">
            <mxPoint x="282.575625" y="475.1428571428571" as="sourcePoint" />
            <mxPoint x="166.86" y="513.7142857142857" as="targetPoint" />
          </mxGeometry>
        </mxCell>
        <mxCell id="clpaJocxuM_yP_q-SSFf-43" value="&lt;font style=&quot;font-size: 10px;&quot;&gt;generate candidate&lt;/font&gt;" style="curved=1;endArrow=classic;html=1;rounded=0;strokeWidth=3;dashed=1;entryX=0.055;entryY=0.013;entryDx=0;entryDy=0;entryPerimeter=0;" parent="1" target="clpaJocxuM_yP_q-SSFf-26" edge="1">
          <mxGeometry x="-0.6053" y="-22" width="50" height="50" relative="1" as="geometry">
            <mxPoint x="280" y="360" as="sourcePoint" />
            <mxPoint x="570" y="220" as="targetPoint" />
            <Array as="points">
              <mxPoint x="320" y="150" />
            </Array>
            <mxPoint as="offset" />
          </mxGeometry>
        </mxCell>
        <mxCell id="clpaJocxuM_yP_q-SSFf-48" value="&lt;font style=&quot;font-size: 10px;&quot;&gt;many more candidates&lt;/font&gt;" style="curved=1;endArrow=classic;html=1;rounded=0;strokeWidth=3;dashed=1;" parent="1" edge="1">
          <mxGeometry x="-0.0708" y="-20" width="50" height="50" relative="1" as="geometry">
            <mxPoint x="285" y="450" as="sourcePoint" />
            <mxPoint x="355" y="570" as="targetPoint" />
            <Array as="points">
              <mxPoint x="345" y="500" />
            </Array>
            <mxPoint as="offset" />
          </mxGeometry>
        </mxCell>
        <mxCell id="clpaJocxuM_yP_q-SSFf-53" value="" style="group;fillColor=#FFFFFF;" parent="1" vertex="1" connectable="0">
          <mxGeometry x="330" y="580" width="60" height="80" as="geometry" />
        </mxCell>
        <mxCell id="clpaJocxuM_yP_q-SSFf-49" value="" style="rounded=1;whiteSpace=wrap;html=1;fillColor=#FFFFFF;dashed=1;" parent="clpaJocxuM_yP_q-SSFf-53" vertex="1">
          <mxGeometry width="40" height="60" as="geometry" />
        </mxCell>
        <mxCell id="clpaJocxuM_yP_q-SSFf-50" value="" style="rounded=1;whiteSpace=wrap;html=1;fillColor=#FFFFFF;dashed=1;" parent="clpaJocxuM_yP_q-SSFf-53" vertex="1">
          <mxGeometry x="10" y="10" width="40" height="60" as="geometry" />
        </mxCell>
        <mxCell id="clpaJocxuM_yP_q-SSFf-51" value="" style="rounded=1;whiteSpace=wrap;html=1;fillColor=#FFFFFF;dashed=1;" parent="clpaJocxuM_yP_q-SSFf-53" vertex="1">
          <mxGeometry x="20" y="20" width="40" height="60" as="geometry" />
        </mxCell>
        <mxCell id="clpaJocxuM_yP_q-SSFf-54" value="&lt;font style=&quot;font-size: 23px;&quot;&gt;...&lt;/font&gt;" style="text;html=1;align=center;verticalAlign=middle;whiteSpace=wrap;rounded=0;" parent="1" vertex="1">
          <mxGeometry x="375" y="605" width="60" height="30" as="geometry" />
        </mxCell>
        <mxCell id="clpaJocxuM_yP_q-SSFf-57" value="ret" style="ellipse;whiteSpace=wrap;html=1;aspect=fixed;fontFamily=Courier New;fontSize=14;strokeWidth=2;fillColor=#f5f5f5;strokeColor=#666666;fontColor=#333333;" parent="1" vertex="1">
          <mxGeometry x="120.0025" y="563.2857142857142" width="61.714285714285715" height="61.714285714285715" as="geometry" />
        </mxCell>
        <mxCell id="clpaJocxuM_yP_q-SSFf-58" value="" style="endArrow=classic;html=1;rounded=0;entryX=0.5;entryY=0;entryDx=0;entryDy=0;strokeWidth=2;exitX=0.5;exitY=1;exitDx=0;exitDy=0;" parent="1" source="6MzHVBXv33oPtRZ-CpsC-3" target="clpaJocxuM_yP_q-SSFf-57" edge="1">
          <mxGeometry width="50" height="50" relative="1" as="geometry">
            <mxPoint x="161" y="441" as="sourcePoint" />
            <mxPoint x="161" y="480" as="targetPoint" />
          </mxGeometry>
        </mxCell>
        <mxCell id="8JumPkLQTMgy9wmEPP-X-2" value="&lt;font style=&quot;font-size: 14px;&quot;&gt;A cut of an LLVM function that serves as the specification in Minotaur&#39;s synthesis procedure&amp;nbsp;&lt;/font&gt;" style="whiteSpace=wrap;html=1;rounded=0;strokeColor=none;strokeWidth=2;align=left;verticalAlign=middle;fontFamily=Helvetica;fontSize=13;fontColor=default;fillColor=none;gradientColor=none;" vertex="1" parent="1">
          <mxGeometry x="40" y="20" width="580" height="30" as="geometry" />
        </mxCell>
        <mxCell id="8JumPkLQTMgy9wmEPP-X-3" value="&lt;font style=&quot;font-size: 14px;&quot;&gt;Synthesized LLVM function that refines the original cut&lt;/font&gt;" style="whiteSpace=wrap;html=1;rounded=0;strokeColor=none;strokeWidth=2;align=left;verticalAlign=middle;fontFamily=Helvetica;fontSize=13;fontColor=default;fillColor=none;gradientColor=none;" vertex="1" parent="1">
          <mxGeometry x="40" y="670" width="580" height="30" as="geometry" />
        </mxCell>
      </root>
    </mxGraphModel>
  </diagram>
</mxfile>
